<?xml version="1.0" standalone="no"?>
<!DOCTYPE svg PUBLIC "-//W3C//DTD SVG 20010904//EN"
 "http://www.w3.org/TR/2001/REC-SVG-20010904/DTD/svg10.dtd">
<svg version="1.0" xmlns="http://www.w3.org/2000/svg"
 width="512.000000pt" height="512.000000pt" viewBox="0 0 512.000000 512.000000"
 preserveAspectRatio="xMidYMid meet">

<g transform="translate(0.000000,512.000000) scale(0.100000,-0.100000)" stroke="none">
<path d="M2285 4675 c-811 -106 -1495 -672 -1749 -1446 -75 -229 -106 -422
-106 -669 0 -247 31 -440 106 -669 105 -319 274 -592 518 -837 183 -182 348
-300 571 -410 588 -287 1288 -287 1870 0 967 478 1426 1577 1084 2601 -258
775 -967 1345 -1781 1434 -128 14 -388 12 -513 -4z m-377 -1317 c37 -34 199
-193 360 -353 l292 -290 338 336 c185 185 348 344 362 353 41 27 87 21 126
-18 26 -26 34 -42 34 -71 0 -44 -5 -50 -425 -473 l-280 -282 336 -338 c185
-185 344 -348 353 -362 27 -41 21 -87 -18 -126 -26 -26 -42 -34 -71 -34 -45 0
-49 4 -463 415 l-292 290 -338 -336 c-185 -185 -348 -344 -362 -353 -41 -27
-87 -21 -126 18 -26 26 -34 42 -34 71 0 45 4 49 404 453 l301 302 -336 338
c-185 185 -344 348 -353 362 -27 41 -21 87 18 126 26 26 42 34 71 34 31 0 47
-9 103 -62z"/>
</g>
</svg>
