<?xml version="1.0" encoding="UTF-8"?>
<!DOCTYPE svg PUBLIC "-//W3C//DTD SVG 1.1//EN" "http://www.w3.org/Graphics/SVG/1.1/DTD/svg11.dtd">
<!-- Creator: CorelDRAW 2020 (64-Bit) -->
<svg xmlns="http://www.w3.org/2000/svg" xml:space="preserve" width="2480px" height="741px" version="1.1" shape-rendering="geometricPrecision" text-rendering="geometricPrecision" image-rendering="optimizeQuality" fill-rule="evenodd" clip-rule="evenodd"
viewBox="0 0 2480 740.91"
 xmlns:xlink="http://www.w3.org/1999/xlink"
 xmlns:xodm="http://www.corel.com/coreldraw/odm/2003">
 <g id="Capa_x0020_1">
  <metadata id="CorelCorpID_0Corel-Layer"/>
  <path id="logo" d="M663.39 460.67c9.83,18.56 59.64,66.94 84.4,82.41 48.42,30.24 85.67,5.68 122.78,-18.51 110.6,-72.11 159.64,-9.22 225.36,49.68 -18.27,-50.46 -98.26,-162.37 -190.02,-130.14 -36.5,12.82 -78.21,48.67 -113.39,52.23 -40.62,4.11 -87.08,-28.66 -129.13,-35.67zm-131.3 128.95c-168.38,-37.12 -165.67,109.19 -393.44,-49.78 -25.95,-18.11 -80.57,-60.77 -105.58,-70.55 32.18,69.15 131.84,181.3 201.87,214.28 103.02,48.53 157.41,-20.09 275.9,-79.22l21.25 -14.73zm-258.72 -37.22c99.39,48.33 147.12,-26.32 231,-15.51 117.16,15.09 206.91,269.26 362.03,132.79 79.1,-69.59 102.11,-109.93 178.97,-79.48 -85.32,-160.64 -195.05,60.88 -308.15,-14.56 -80.73,-53.85 -165.99,-193.51 -279.49,-134.6 -37.43,19.43 -58.08,39.04 -89.24,60.88 -15.7,11 -26.18,19.11 -43.84,28.35 -16.03,8.38 -35.14,12.28 -51.28,22.13zm219.46 -478.81l-1.14 30.92c-2.92,-10.52 4.05,-17.6 -21.98,-9.5 -17.99,5.6 -11.33,-0.35 -13.73,24.24l-5.05 -19.17c-21.21,4.96 -25.18,5.01 -36.82,17.14 -7.97,-22.03 -21.29,-38.32 -29.75,-61.33l-31.12 15.93 31.62 61.82c-22.18,13.68 -45.82,37 -55.9,58.9l-57.42 -31.32 -18.2 26.33c16.9,13.5 35.74,26.39 56.69,37.93l-13.2 29.57c7.6,17.61 -6.85,3.32 15.62,15 -29.82,-0.06 -14.59,-3.82 -21.86,11.45 -5.16,10.85 -0.46,20.46 2.26,25.71l-70.69 2.17 0.52 34.3 66.61 1.23c-0.14,10.86 -1.57,13.04 1.65,24.29 10.44,36.53 11.2,-17.69 9.51,23.26l7.18 33.75 -54.33 35.61 13.05 30.47c24.48,-7.69 39.3,-21.65 60.76,-32.22l13.76 21.56c19.76,-8.06 35.09,-21.52 45.87,-34.05 -89.38,-110.33 -31.7,-278.36 103.74,-296.34 97.32,-12.93 243.98,83 158.82,276.43 45.45,4.43 73.82,21.91 112.05,33.47 -16.2,-7.74 -31.16,-21.14 -50.8,-30.16 17.33,-45.99 14.46,-36.32 0.56,-47.04 11.24,-1.27 20.78,10.47 19.16,-37.95l67.15 -0.31 0.32 -36.98 -68.93 0c7.04,-51 -8.7,-38.51 -19.45,-39.9 19.84,-3.65 8.57,-3.64 13.94,-8.21l-12.47 -36.69 55.54 -31.99c-4.79,-12.68 -7.23,-19.03 -16.42,-30.44l-53.34 31.12 -32.17 -28.16c-6.97,-8 5.82,0.37 -7.99,-16.31 -6.12,-7.39 -12.26,-9.93 -18.82,-15.76l29.74 -58 -25.72 -18.35c-11.94,11.85 -30.91,47.88 -38.05,64.44 -4.72,-10.24 0.42,-4.5 -11.1,-11.52 -5.59,-3.41 -12.2,-4.91 -17.41,-6.96 -10.41,9.42 -8.99,7.36 -12.94,23.74 0.15,-30.69 -3.14,-26.41 -4.34,-29.24l-30.68 -3.79 -0.03 -64.96 -34.27 -2.87 0 48.74zm-84.75 357.48c26.32,-5.59 110.33,-77.02 201.45,-0.61 88.4,-65.46 36.07,-254.12 -100.25,-253.52 -126.21,0.56 -190.96,165.98 -101.2,254.13z"/>
  <path id="Descripcion"  fill-rule="nonzero" d="M1175.64 573.82l0 -126.75 17.25 0 0 105.15 42.71 0 0 21.6 -59.96 0zm175.44 0l-18.59 0 -7.35 -29.1 -34.17 0 -7.08 29.1 -18.24 0 33.07 -127.82 18.23 0 34.13 127.82zm-31.53 -50.7l-11.84 -47.3 -11.5 47.3 23.34 0zm91.14 50.7l-30.48 -127.82 18.64 0 21.63 94.62 20.76 -94.62 18.33 0 -30.3 127.82 -18.58 0zm162.94 0l-18.58 0 -7.36 -29.1 -34.16 0 -7.08 29.1 -18.25 0 33.08 -127.82 18.22 0 34.13 127.82zm-31.53 -50.7l-11.84 -47.3 -11.5 47.3 23.34 0zm69.35 50.7l0 -127.82 16.7 0 35.06 85.66 0 -85.66 15.94 0 0 127.82 -17.23 0 -34.53 -84.02 0 84.02 -15.94 0zm118.98 -127.82l31.37 0c7.08,0 12.48,0.81 16.19,2.44 4.97,2.2 9.26,6.13 12.81,11.78 3.57,5.63 6.26,12.53 8.13,20.71 1.84,8.15 2.77,18.24 2.77,30.2 0,10.54 -0.87,19.58 -2.61,27.2 -2.13,9.31 -5.16,16.84 -9.11,22.58 -2.97,4.37 -7,7.76 -12.06,10.2 -3.78,1.82 -8.84,2.71 -15.18,2.71l-32.31 0 0 -127.82zm17.25 21.6l0 84.62 12.8 0c4.77,0 8.23,-0.42 10.35,-1.22 2.79,-1.04 5.09,-2.83 6.92,-5.32 1.84,-2.5 3.33,-6.61 4.48,-12.32 1.17,-5.71 1.74,-13.54 1.74,-23.42 0,-9.88 -0.57,-17.43 -1.74,-22.73 -1.15,-5.3 -2.78,-9.4 -4.86,-12.38 -2.08,-2.94 -4.72,-4.96 -7.93,-6.01 -2.38,-0.8 -7.08,-1.22 -14.06,-1.22l-7.7 0zm101.73 106.22l0 -127.82 63.07 0 0 21.6 -45.81 0 0 28.39 42.59 0 0 21.6 -42.59 0 0 34.63 47.47 0 0 21.6 -64.73 0zm112.42 0l0 -127.82 36.23 0c9.1,0 15.73,1.16 19.85,3.45 4.15,2.29 7.44,6.37 9.92,12.23 2.48,5.89 3.73,12.59 3.73,20.15 0,9.61 -1.87,17.52 -5.61,23.77 -3.75,6.25 -9.35,10.17 -16.8,11.81 3.71,3.24 6.76,6.81 9.16,10.71 2.42,3.9 5.67,10.83 9.76,20.77l10.39 24.93 -20.57 0 -12.33 -27.91c-4.42,-9.9 -7.46,-16.15 -9.1,-18.74 -1.63,-2.56 -3.35,-4.34 -5.18,-5.3 -1.84,-0.95 -4.74,-1.42 -8.7,-1.42l-3.5 0 0 53.37 -17.25 0zm17.25 -73.73l12.74 0c8.25,0 13.38,-0.53 15.44,-1.57 2.05,-1.04 3.67,-2.86 4.82,-5.42 1.17,-2.56 1.75,-5.77 1.75,-9.61 0,-4.31 -0.78,-7.76 -2.3,-10.44 -1.53,-2.65 -3.69,-4.32 -6.47,-5 -1.4,-0.3 -5.59,-0.45 -12.55,-0.45l-13.43 0 0 32.49zm101.14 73.73l0 -127.82 17.25 0 0 127.82 -17.25 0zm139.03 0l-18.58 0 -7.36 -29.1 -34.17 0 -7.07 29.1 -18.25 0 33.08 -127.82 18.22 0 34.13 127.82zm-31.53 -50.7l-11.84 -47.3 -11.5 47.3 23.34 0z"/>
  <path id="Nombre"  fill-rule="nonzero" d="M922.2 368.45c-8.83,0 -16.19,-1.41 -22.06,-4.17 -5.92,-2.81 -10.56,-6.85 -13.97,-12.22 -3.42,-5.36 -5.84,-11.88 -7.32,-19.59 -1.44,-7.72 -2.14,-16.47 -2.14,-26.29l0 -19.1 30.45 0 0 21.5c0,11.47 0.95,19.68 2.88,24.75 1.93,5.04 5.79,7.55 11.59,7.55 3.82,0 6.74,-0.9 8.71,-2.72 1.97,-1.82 3.29,-4.74 3.99,-8.79 0.65,-4 0.98,-9.24 0.98,-15.72 0,-8.04 -1.64,-15.39 -4.97,-21.99 -3.33,-6.6 -8.38,-13.41 -15.12,-20.43l-15.66 -16.17c-4.31,-4.54 -8.22,-9.33 -11.71,-14.4 -3.49,-5.08 -6.29,-10.73 -8.3,-17 -2.05,-6.23 -3.08,-13.24 -3.08,-20.96 0,-11.18 1.35,-20.67 4.07,-28.39 2.75,-7.75 7.35,-13.61 13.84,-17.62 6.54,-3.96 15.41,-5.98 26.76,-5.98 8.5,0 15.49,1.32 20.95,3.92 5.43,2.64 9.7,6.48 12.82,11.51 3.09,5.04 5.26,11.18 6.54,18.45 1.27,7.22 1.93,15.51 1.93,24.75l0 13.08 -29.63 0 0 -15.14c0,-6.52 -0.33,-11.92 -1.03,-16.26 -0.65,-4.29 -1.93,-7.51 -3.78,-9.65 -1.85,-2.15 -4.52,-3.22 -8.05,-3.22 -3.45,0 -6.21,0.74 -8.3,2.23 -2.1,1.52 -3.62,3.83 -4.52,6.97 -0.95,3.14 -1.4,7.18 -1.4,12.09 0,4.42 0.58,8.29 1.69,11.55 1.15,3.26 2.87,6.36 5.17,9.37 2.35,2.97 5.26,6.31 8.8,10.03l17.34 18.85c8.34,9.04 14.83,18.41 19.52,28.18 4.64,9.74 6.94,20.63 6.94,32.64 0,12.71 -1.35,23.4 -4.07,32.06 -2.75,8.67 -7.27,15.23 -13.68,19.64 -6.37,4.46 -15.08,6.69 -26.18,6.69zm111.04 0c-10.93,0 -19.85,-2.36 -26.8,-7.02 -6.94,-4.7 -12.08,-11.63 -15.36,-20.79 -3.29,-9.21 -4.94,-20.55 -4.94,-34.09l0 -97.33c0,-12.25 1.61,-22.73 4.81,-31.44 3.25,-8.67 8.34,-15.39 15.33,-20.05 6.95,-4.67 16.11,-7.02 27.41,-7.02 8.55,0 15.7,1.32 21.49,4 5.84,2.64 10.56,6.52 14.18,11.56 3.61,5.03 6.24,11.14 7.89,18.36 1.64,7.22 2.46,15.43 2.46,24.59l0 97.33c0,13.54 -1.6,24.88 -4.76,34.09 -3.17,9.16 -8.18,16.09 -15,20.79 -6.82,4.66 -15.74,7.02 -26.71,7.02zm0 -27.94c4.06,0 7.15,-1.2 9.12,-3.63 2.01,-2.43 3.37,-6.11 4.07,-11.14 0.66,-4.99 0.98,-11.26 0.98,-18.86l0 -99.1c0,-9.37 -0.86,-16.55 -2.58,-21.59 -1.73,-5.03 -5.43,-7.54 -11.14,-7.54 -5.92,0 -9.95,2.47 -12,7.38 -2.1,4.91 -3.16,12.13 -3.16,21.62l0 99.23c0,7.76 0.37,14.11 1.02,19.11 0.7,4.99 2.1,8.66 4.24,11.01 2.13,2.36 5.26,3.51 9.45,3.51zm75.85 25.5l-0.12 -212.74 32.14 0 0 185.3 40.68 0.13 0.12 27.31 -72.82 0zm134.71 0l0 -212.74 47.42 0c10.76,0 19.39,2.15 25.89,6.44 6.49,4.33 11.21,10.56 14.13,18.69 2.92,8.13 4.4,17.99 4.4,29.5l0.12 95.97c0,13.95 -1.52,25.54 -4.52,34.74 -3,9.25 -7.85,16.14 -14.5,20.63 -6.66,4.5 -15.54,6.77 -26.59,6.77l-46.35 0zm32.13 -25l10.6 0c3.86,0 7.03,-0.79 9.58,-2.31 2.5,-1.53 4.39,-4.29 5.63,-8.21 1.27,-3.97 1.89,-9.58 1.89,-16.84l-0.13 -104.93c0,-10.85 -1.31,-18.69 -3.98,-23.47 -2.63,-4.83 -7.32,-7.22 -13.97,-7.22l-9.62 0 0 162.98zm89.21 25l-0.12 -212.74 70.88 0 0 27.81 -38.75 -0.12 0 62.22 36.82 0 0 27.23 -36.82 -0.12 0 67.91 40.11 0.13 0.08 27.68 -72.2 0zm140.62 0l-0.12 -212.74 32.13 0 0 185.3 40.69 0.13 0.12 27.31 -72.82 0zm77.75 0l30.33 -212.74 42.4 0 32.14 212.74 -30 0 -5.05 -37.96 -34.32 0 -4.56 37.96 -30.94 0zm38.63 -63.95l27.82 0 -14.18 -106.87 -0.5 0 -13.14 106.87zm129.93 63.95l0 -212.74 39.82 0 30.24 155.68 28.28 -155.68 40.23 0 0 212.74 -28.65 0 0 -79.3 1.2 -72.87 -28.65 151.22 -25.43 0 -29.84 -151.22 1.2 72.87 0 79.3 -28.4 0zm214.87 2.44c-10.93,0 -19.84,-2.36 -26.79,-7.02 -6.94,-4.7 -12.08,-11.63 -15.37,-20.79 -3.28,-9.21 -4.93,-20.55 -4.93,-34.09l0 -97.33c0,-12.25 1.61,-22.73 4.81,-31.44 3.25,-8.67 8.34,-15.39 15.33,-20.05 6.94,-4.67 16.11,-7.02 27.41,-7.02 8.54,0 15.69,1.32 21.49,4 5.83,2.64 10.56,6.52 14.18,11.56 3.61,5.03 6.24,11.14 7.89,18.36 1.64,7.22 2.46,15.43 2.46,24.59l0 97.33c0,13.54 -1.6,24.88 -4.77,34.09 -3.16,9.16 -8.17,16.09 -14.99,20.79 -6.83,4.66 -15.74,7.02 -26.72,7.02zm0 -27.94c4.07,0 7.16,-1.2 9.13,-3.63 2.01,-2.43 3.37,-6.11 4.07,-11.14 0.65,-4.99 0.98,-11.26 0.98,-18.86l0 -99.1c0,-9.37 -0.86,-16.55 -2.59,-21.59 -1.72,-5.03 -5.42,-7.54 -11.13,-7.54 -5.92,0 -9.95,2.47 -12,7.38 -2.1,4.91 -3.17,12.13 -3.17,21.62l0 99.23c0,7.76 0.37,14.11 1.03,19.11 0.7,4.99 2.1,8.66 4.23,11.01 2.14,2.36 5.26,3.51 9.45,3.51zm75.86 25.5l-0.12 -212.74 32.13 0 0 185.3 40.69 0.13 0.12 27.31 -72.82 0zm90.98 0l0 -212.74 32.18 0 0 212.74 -32.18 0zm64.56 0l0 -212.74 25.15 0 45.03 127.99 -2.3 -58.14 0 -69.85 28.89 0 0 212.74 -22.85 0 -46.14 -132.36 1.8 55.86 0 76.5 -29.58 0zm116.04 0l30.33 -212.74 42.41 0 32.13 212.74 -29.99 0 -5.06 -37.96 -34.31 0 -4.56 37.96 -30.95 0zm38.63 -63.95l27.82 0 -14.18 -106.87 -0.49 0 -13.15 106.87z"/>
 </g>
</svg>
