<?xml version="1.0" encoding="UTF-8"?>
<!DOCTYPE svg PUBLIC "-//W3C//DTD SVG 1.1//EN" "http://www.w3.org/Graphics/SVG/1.1/DTD/svg11.dtd">
<!-- Creator: CorelDRAW 2020 (64-Bit) -->
<svg xmlns="http://www.w3.org/2000/svg" xml:space="preserve" width="34px" height="22px" version="1.1" shape-rendering="geometricPrecision" text-rendering="geometricPrecision" image-rendering="optimizeQuality" fill-rule="evenodd" clip-rule="evenodd"
viewBox="0 0 34 22"
 xmlns:xlink="http://www.w3.org/1999/xlink"
 xmlns:xodm="http://www.corel.com/coreldraw/odm/2003">
 <g id="Capa_x0020_1">
  <metadata id="CorelCorpID_0Corel-Layer"/>
  <path d="M11.79 7.09c0,0.91 2.87,0.7 2.87,2.55 0,0.49 -0.21,0.85 -0.47,1.1 -0.37,0.38 -0.55,0.35 -0.99,0.59 0,0.75 0.04,1.08 -0.6,1.08 -0.55,0 -0.49,-0.53 -0.49,-1.08 -2.12,-0.5 -1.43,-1.58 -0.98,-1.58 0.56,0 0.59,0.49 1.52,0.49 0.38,0 0.87,-0.2 0.87,-0.65 0,-0.72 -2.87,-0.58 -2.87,-2.56 0,-1 1.08,-1.37 1.46,-1.57 0,-0.76 -0.04,-1.09 0.6,-1.09 0.55,0 0.49,0.54 0.49,1.09 2.03,0.47 1.57,1.57 0.87,1.57 -0.24,0 -0.41,-0.2 -0.62,-0.3 -0.78,-0.4 -1.66,-0.06 -1.66,0.36zm-7.55 -2.99l0 6.9c-0.6,0 -1.14,-0.11 -1.14,0.7 0,0.14 0.17,0.37 0.42,0.45 0.59,0.19 2.18,-0.31 2.18,0.59 0,1.17 -2.6,-0.07 -2.6,1.08 0,0.37 0.15,0.66 0.54,0.66l16.89 0c0.34,0 0.54,-0.31 0.54,-0.66l0 -9.72c0,-0.52 -0.2,-0.95 -0.45,-1.23 -0.2,-0.24 -0.71,-0.56 -1.12,-0.56l-13.69 0c-0.77,0 -1.57,0.78 -1.57,1.79zm19.44 6.9l0 -2.34c0,-0.27 0.27,-0.54 0.54,-0.54l2.39 0c0.87,0 1.11,0.89 1.41,1.58 0.13,0.29 0.55,1.05 0.55,1.3 0,0.27 -0.2,0.54 -0.49,0.54l-3.91 0c-0.29,0 -0.49,-0.27 -0.49,-0.54zm-1.47 4.45c0.58,-0.38 1.14,-0.97 2.28,-0.97 0.44,0 0.96,0.14 1.26,0.26 0.36,0.14 0.67,0.34 0.93,0.59 0.55,0.53 0.95,1.26 1.02,2.08 0.83,0 1.66,0.07 2.24,-0.2 0.47,-0.22 0.96,-0.82 0.96,-1.49l0 -2.71c0,-0.71 -0.9,-2.34 -1.22,-3.12l-1.37 -2.98c-0.29,-0.51 -1.04,-1.12 -1.81,-1.12l-3.74 0c-0.76,0 -0.55,1.07 -0.55,2.01l0 7.65zm-9.45 1.96l7.5 0c0.93,0 0.81,-0.61 0.81,-1.2 0,-0.34 -0.27,-0.57 -0.59,-0.59 -0.7,-0.06 -7.64,0 -8.53,0 0.06,0.21 0.27,0.39 0.45,0.85 0.07,0.16 0.12,0.31 0.16,0.49 0.04,0.2 -0.02,0.45 0.2,0.45zm-5.32 0.11l0 0.27c0,0.97 0.93,1.9 1.9,1.9 0.45,0 0.63,0 1.05,-0.2 1.87,-0.9 1.24,-3.87 -0.88,-3.87 -1.13,0 -2.07,0.9 -2.07,1.9zm15.05 0.1c0,1.23 0.87,2.07 2.17,2.07 0.97,0 1.9,-0.93 1.9,-1.9l0 -0.27c0,-1.02 -0.98,-1.9 -2.01,-1.9 -1.11,0 -2.06,0.91 -2.06,2zm-16.19 -0.21c0.09,-1.08 0.65,-1.58 0.71,-1.79l-2.77 0c0,1.19 0.93,1.79 2.06,1.79z"/>
 </g>
</svg>
