<?xml version="1.0" encoding="UTF-8"?>
<!DOCTYPE svg PUBLIC "-//W3C//DTD SVG 1.1//EN" "http://www.w3.org/Graphics/SVG/1.1/DTD/svg11.dtd">
<!-- Creator: CorelDRAW 2020 (64-Bit) -->
<svg xmlns="http://www.w3.org/2000/svg" xml:space="preserve" width="34px" height="22px" version="1.1" shape-rendering="geometricPrecision" text-rendering="geometricPrecision" image-rendering="optimizeQuality" fill-rule="evenodd" clip-rule="evenodd"
viewBox="0 0 34 22.28"
 xmlns:xlink="http://www.w3.org/1999/xlink"
 xmlns:xodm="http://www.corel.com/coreldraw/odm/2003">
 <g id="Capa_x0020_1">
  <metadata id="CorelCorpID_0Corel-Layer"/>
  <g id="_3007436146400">
   <path  d="M2.62 4.61l0 7.3c-0.63,0 -1.21,-0.11 -1.21,0.75 0,0.15 0.19,0.39 0.45,0.47 0.62,0.2 2.31,-0.33 2.31,0.62 0,1.25 -2.76,-0.07 -2.76,1.15 0,0.39 0.17,0.69 0.57,0.69l17.89 0c0.36,0 0.58,-0.32 0.58,-0.69l0 -10.29c0,-0.55 -0.22,-1 -0.48,-1.31 -0.21,-0.25 -0.75,-0.59 -1.19,-0.59l-14.49 0c-0.82,0 -1.67,0.83 -1.67,1.9z"/>
   <path  d="M23.21 11.91l0 -2.47c0,-0.29 0.28,-0.58 0.57,-0.58l2.53 0c0.93,0 1.17,0.95 1.5,1.67 0.14,0.31 0.57,1.12 0.57,1.38 0,0.29 -0.21,0.58 -0.52,0.58l-4.14 0c-0.31,0 -0.51,-0.29 -0.51,-0.58zm-1.56 4.72c0.61,-0.41 1.21,-1.04 2.42,-1.04 0.46,0 1.01,0.15 1.33,0.28 0.38,0.15 0.71,0.36 0.98,0.63 0.59,0.56 1.01,1.33 1.08,2.2 0.88,0 1.76,0.08 2.38,-0.21 0.49,-0.24 1.01,-0.87 1.01,-1.57l0 -2.88c0,-0.75 -0.95,-2.47 -1.29,-3.3l-1.45 -3.16c-0.31,-0.54 -1.1,-1.19 -1.91,-1.19l-3.97 0c-0.8,0 -0.58,1.14 -0.58,2.13l0 8.11z"/>
   <path d="M11.65 18.7l7.93 0c0.99,0 0.87,-0.65 0.87,-1.27 0,-0.36 -0.29,-0.6 -0.64,-0.63 -0.73,-0.06 -8.09,0 -9.03,0 0.06,0.23 0.29,0.42 0.48,0.9 0.07,0.18 0.13,0.33 0.17,0.53 0.04,0.21 -0.02,0.47 0.22,0.47z"/>
   <path  d="M6.01 18.81l0 0.29c0,1.03 0.98,2.01 2.01,2.01 0.48,0 0.67,0.01 1.11,-0.21 1.98,-0.95 1.32,-4.1 -0.93,-4.1 -1.19,0 -2.19,0.95 -2.19,2.01z"/>
   <path  d="M21.94 18.93c0,1.3 0.92,2.18 2.3,2.18 1.03,0 2.01,-0.98 2.01,-2.01l0 -0.29c0,-1.07 -1.03,-2.01 -2.12,-2.01 -1.18,0 -2.19,0.96 -2.19,2.13z"/>
   <path d="M4.8 18.7c0.1,-1.15 0.69,-1.67 0.75,-1.9l-2.93 0c0,1.26 0.99,1.9 2.18,1.9z"/>
  </g>
 </g>
</svg>
