<?xml version="1.0" standalone="no"?>
<!DOCTYPE svg PUBLIC "-//W3C//DTD SVG 20010904//EN"
 "http://www.w3.org/TR/2001/REC-SVG-20010904/DTD/svg10.dtd">
<svg version="1.0" xmlns="http://www.w3.org/2000/svg"
 width="512.000000pt" height="512.000000pt" viewBox="0 0 512.000000 512.000000"
 preserveAspectRatio="xMidYMid meet">

<g transform="translate(0.000000,512.000000) scale(0.100000,-0.100000)" stroke="none">
<path d="M885 4617 c-33 -18 -111 -122 -448 -592 -304 -425 -412 -583 -424
-622 -33 -105 18 -292 117 -425 222 -301 652 -342 940 -90 l50 44 50 -44 c68
-60 145 -105 232 -135 64 -23 89 -27 198 -27 109 0 134 4 198 27 87 30 164 75
232 135 l50 44 50 -44 c68 -60 145 -105 232 -135 64 -23 89 -27 198 -27 109 0
134 4 198 27 87 30 164 75 232 135 l50 44 50 -44 c68 -60 145 -105 232 -135
64 -23 89 -27 198 -27 109 0 134 4 198 27 87 30 164 75 232 135 l50 44 50 -44
c115 -101 248 -156 395 -165 328 -19 621 221 667 547 10 70 9 89 -5 133 -12
39 -122 199 -424 622 -337 470 -415 574 -448 592 l-40 23 -1635 0 -1635 0 -40
-23z"/>
<path d="M1058 2500 c-31 -17 -97 -41 -145 -56 -154 -45 -402 -44 -537 3 -21
7 -43 13 -47 13 -6 0 -8 -361 -7 -867 l3 -868 26 -56 c33 -71 87 -125 158
-158 l56 -26 1318 -3 1317 -2 0 800 0 800 480 0 480 0 0 -801 0 -801 198 4
c188 3 199 4 253 29 71 33 125 87 158 158 l26 56 3 867 2 868 -25 -10 c-204
-78 -504 -56 -717 51 l-58 29 -57 -28 c-128 -64 -262 -94 -423 -94 -161 0
-295 30 -422 94 l-58 28 -57 -28 c-128 -64 -262 -94 -423 -94 -161 0 -295 30
-422 94 l-58 28 -57 -28 c-128 -64 -262 -94 -423 -94 -161 0 -295 30 -422 93
-32 16 -59 29 -60 29 -2 -1 -29 -14 -60 -30z m1182 -900 l0 -480 -640 0 -640
0 0 480 0 480 640 0 640 0 0 -480z"/>
</g>
</svg>
