<?xml version="1.0" standalone="no"?>
<!DOCTYPE svg PUBLIC "-//W3C//DTD SVG 20010904//EN"
 "http://www.w3.org/TR/2001/REC-SVG-20010904/DTD/svg10.dtd">
<svg version="1.0" xmlns="http://www.w3.org/2000/svg"
 width="794.000000pt" height="924.000000pt" viewBox="0 0 794.000000 924.000000"
 preserveAspectRatio="xMidYMid meet">

<g transform="translate(0.000000,924.000000) scale(0.100000,-0.100000)" stroke="none">
<path d="M796 8914 c-152 -37 -279 -158 -326 -313 -18 -57 -20 -93 -20 -387
l0 -324 3461 0 3461 0 -4 313 c-4 288 -6 317 -26 377 -49 147 -164 264 -320
323 l-57 22 -3055 2 c-2621 1 -3063 -1 -3114 -13z m4049 -93 c52 -24 88 -59
114 -109 20 -39 21 -57 21 -303 0 -245 -1 -266 -21 -305 -11 -24 -36 -57 -55
-73 -71 -63 -51 -62 -1020 -59 l-879 3 -41 22 c-57 30 -100 83 -119 145 -18
62 -22 437 -4 517 14 66 58 125 116 155 l48 25 900 0 c854 1 902 0 940 -18z"/>
<path d="M512 7600 c-18 -11 -37 -32 -42 -46 -7 -17 -9 -1091 -8 -3072 l3
-3047 28 -82 c83 -246 251 -414 487 -491 l85 -27 2840 0 2840 0 85 29 c180 60
296 139 412 277 69 83 117 175 155 296 l28 88 3 3012 2 3012 -29 33 -29 33
-3414 2 c-3397 3 -3413 3 -3446 -17z m6517 -149 c231 -71 388 -322 352 -561
-32 -214 -200 -391 -415 -437 -265 -56 -538 121 -601 389 -20 86 -19 160 5
251 49 194 198 333 405 377 58 13 180 3 254 -19z m-1765 -260 c155 -76 224
-262 154 -411 -119 -252 -461 -252 -581 0 -34 70 -31 187 6 262 34 69 100 130
171 158 71 28 182 24 250 -9z m721 -30 c98 -46 154 -114 180 -219 36 -138 -33
-280 -168 -349 -205 -104 -457 51 -457 282 0 225 244 382 445 286z m-1759
-555 c553 -81 1044 -325 1435 -716 301 -301 511 -650 633 -1054 132 -433 143
-926 30 -1356 -221 -843 -847 -1508 -1673 -1774 -383 -124 -834 -151 -1245
-75 -819 152 -1531 732 -1855 1512 -80 193 -135 396 -168 612 -24 167 -24 543
0 705 107 696 474 1299 1037 1700 375 268 774 412 1285 464 79 8 422 -4 521
-18z"/>
<path d="M3627 6255 c-993 -120 -1769 -892 -1893 -1885 -51 -413 28 -868 214
-1234 360 -709 1049 -1153 1847 -1192 427 -21 911 113 1270 351 531 354 871
892 961 1520 20 141 22 416 5 550 -63 482 -270 912 -603 1252 -178 183 -352
309 -589 428 -368 184 -803 259 -1212 210z m553 -389 c137 -26 237 -54 360
-103 412 -163 755 -481 944 -876 405 -843 107 -1835 -697 -2317 -369 -221
-831 -297 -1267 -210 -141 29 -266 71 -408 140 -445 215 -762 575 -926 1054
-92 267 -111 624 -50 926 41 200 166 483 291 660 94 132 293 329 428 425 230
162 519 274 815 315 94 13 410 4 510 -14z"/>
<path d="M2327 4567 c-19 -98 -30 -173 -57 -373 -17 -129 -19 -168 -10 -266
31 -361 155 -663 381 -935 233 -279 555 -471 931 -555 91 -20 129 -23 328 -23
247 0 330 12 525 77 540 179 953 637 1081 1197 13 58 21 107 19 109 -2 3 -33
-4 -67 -14 -82 -24 -291 -25 -439 -1 -142 23 -187 21 -272 -7 -134 -45 -561
-71 -717 -43 -97 17 -122 27 -241 99 -104 64 -168 113 -274 208 -44 40 -104
84 -133 97 -71 33 -171 40 -291 19 -335 -57 -531 46 -682 359 -27 55 -49 105
-49 112 0 6 -4 14 -9 17 -4 3 -15 -31 -24 -77z"/>
<path d="M1120 455 l0 -135 460 0 460 0 0 135 0 135 -460 0 -460 0 0 -135z"/>
<path d="M5790 455 l0 -135 460 0 460 0 0 135 0 135 -460 0 -460 0 0 -135z"/>
</g>
</svg>
